<svg xmlns="http://www.w3.org/2000/svg" viewBox="0 0 160 160" role="img" aria-hidden="true">
  <title>Wrapped gift box, cream with red gingham band</title>
  <defs>
    <pattern id="ginghamBand" width="10" height="10" patternUnits="userSpaceOnUse">
      <rect width="10" height="10" fill="#fdf8ee"/>
      <rect width="5" height="5" fill="#c8393a" opacity="0.55"/>
      <rect x="5" y="5" width="5" height="5" fill="#c8393a" opacity="0.55"/>
    </pattern>
  </defs>
  <g transform="rotate(-1.5 80 84)">
    <rect x="25" y="69" width="110" height="73" rx="6" fill="#fdf8ee"/>
    <rect x="25" y="69" width="110" height="73" rx="6" fill="none" stroke="#c8393a" stroke-width="2" opacity="0.3"/>
    <rect x="25" y="96" width="110" height="20" fill="url(#ginghamBand)"/>
    <rect x="21" y="51" width="118" height="24" rx="5" fill="#c8393a"/>
    <rect x="69" y="51" width="22" height="91" fill="url(#ginghamBand)"/>
    <path d="M80 51 C 56 28, 32 32, 40 51 C 32 40, 17 45, 32 59 C 45 57, 65 55, 80 51 Z" fill="#c8393a"/>
    <path d="M80 51 C 104 28, 128 32, 120 51 C 128 40, 143 45, 128 59 C 115 57, 95 55, 80 51 Z" fill="#c8393a"/>
    <circle cx="80" cy="51" r="8" fill="#a12d2e"/>
  </g>
</svg>
